<?xml version="1.0" standalone="no"?>
<!DOCTYPE svg PUBLIC "-//W3C//DTD SVG 20010904//EN"
 "http://www.w3.org/TR/2001/REC-SVG-20010904/DTD/svg10.dtd">
<svg version="1.0" xmlns="http://www.w3.org/2000/svg"
 width="1024.000000pt" height="1024.000000pt" viewBox="0 0 1024.000000 1024.000000"
 preserveAspectRatio="xMidYMid meet">

<g transform="translate(0.000000,1024.000000) scale(0.100000,-0.100000)"
fill="#000000" stroke="none">
<path d="M1725 9384 c-176 -43 -343 -180 -429 -354 -61 -125 -79 -212 -73
-355 3 -88 10 -127 34 -196 136 -395 583 -569 970 -377 86 43 133 83 133 114
0 44 -87 164 -119 164 -9 0 -31 -9 -50 -21 -133 -81 -315 -95 -448 -34 -228
104 -305 429 -154 649 110 160 384 205 579 95 33 -18 61 -28 72 -24 26 8 120
135 120 162 0 49 -146 137 -286 173 -93 24 -258 26 -349 4z"/>
<path d="M3596 9349 l-26 -20 0 -557 c0 -376 4 -570 11 -597 14 -51 73 -110
124 -124 62 -17 220 -14 239 4 21 21 28 66 24 150 l-3 70 -44 6 c-26 3 -49 13
-57 24 -11 15 -14 114 -14 519 0 276 -4 506 -8 512 -16 24 -55 34 -135 34 -70
0 -89 -3 -111 -21z"/>
<path d="M7020 9363 c-37 -13 -40 -32 -40 -256 l0 -220 -23 34 c-12 19 -47 48
-77 64 -52 28 -61 30 -170 30 -134 0 -178 -13 -268 -79 -116 -86 -185 -238
-186 -411 0 -117 15 -188 58 -269 125 -239 457 -311 636 -137 l48 46 5 -49 c6
-63 23 -76 101 -76 77 0 133 15 146 40 6 12 10 237 10 630 l0 611 -25 24 c-22
23 -31 25 -112 24 -48 0 -95 -3 -103 -6z m-145 -602 c84 -39 105 -83 105 -220
0 -86 -3 -104 -27 -152 -38 -73 -99 -112 -188 -117 -152 -10 -249 108 -231
279 11 106 53 174 131 210 54 25 156 25 210 0z"/>
<path d="M2782 9004 c-82 -22 -151 -54 -172 -82 -16 -19 -20 -40 -20 -94 0
-77 11 -108 39 -108 10 0 48 13 84 30 37 16 98 35 137 42 151 26 250 -28 250
-137 l0 -35 -112 0 c-193 0 -300 -28 -381 -99 -106 -93 -120 -285 -30 -391 46
-53 104 -86 181 -101 118 -24 267 21 333 100 l29 36 0 -47 c0 -69 23 -81 138
-77 58 3 95 9 106 18 16 14 17 41 14 345 -4 287 -7 338 -22 382 -39 111 -125
186 -251 219 -74 19 -251 19 -323 -1z m325 -616 c-3 -37 -13 -71 -25 -87 -62
-84 -227 -104 -282 -33 -17 21 -21 36 -17 70 9 85 59 109 231 111 l99 1 -6
-62z"/>
<path d="M4400 9002 c-88 -29 -140 -60 -196 -116 -100 -101 -150 -243 -141
-401 12 -193 100 -332 264 -414 138 -69 367 -67 518 5 66 31 125 79 125 102 0
17 -53 104 -75 122 -12 10 -30 6 -89 -19 -118 -49 -236 -60 -332 -30 -58 18
-134 119 -134 179 0 20 5 20 325 20 l325 0 16 25 c14 22 16 41 11 115 -4 48
-14 110 -23 137 -39 115 -140 217 -262 264 -80 31 -253 37 -332 11z m267 -208
c34 -24 73 -98 73 -136 l0 -28 -200 0 -199 0 14 46 c15 52 64 109 110 130 45
21 166 14 202 -12z"/>
<path d="M5613 9001 c-64 -23 -103 -50 -141 -97 l-29 -35 -6 52 c-9 75 -15 79
-122 79 -74 0 -97 -4 -115 -18 l-22 -17 2 -438 c0 -240 3 -443 6 -451 10 -26
61 -38 148 -35 128 6 121 -13 123 307 1 147 5 281 8 298 24 138 267 169 340
44 19 -33 20 -55 23 -321 4 -341 -4 -322 123 -328 90 -4 136 10 145 43 3 12 4
173 2 357 -3 290 -6 340 -22 381 -25 66 -86 132 -154 165 -76 37 -228 44 -309
14z"/>
<path d="M7865 8991 c-63 -30 -92 -56 -118 -106 l-16 -30 -1 30 c0 42 -17 97
-32 107 -7 4 -54 8 -104 8 -75 0 -94 -3 -107 -18 -15 -17 -17 -63 -17 -459 0
-419 1 -441 19 -457 36 -33 193 -33 237 -1 18 12 19 34 24 272 5 241 7 261 27
299 42 79 106 114 211 114 90 0 92 4 92 130 0 101 -2 110 -22 124 -37 26 -123
21 -193 -13z"/>
<path d="M8420 9004 c-63 -17 -128 -46 -164 -75 -24 -19 -26 -27 -26 -95 0
-120 19 -135 116 -89 204 97 378 63 392 -75 l5 -50 -114 0 c-213 -1 -330 -37
-408 -126 -77 -88 -91 -220 -34 -325 96 -177 396 -198 542 -38 l26 28 2 -46
c1 -25 7 -51 13 -57 7 -7 50 -11 109 -11 151 0 141 -22 141 319 0 155 -5 310
-11 346 -25 160 -111 255 -264 296 -66 18 -255 17 -325 -2z m326 -610 c-4 -31
-14 -70 -24 -86 -48 -81 -212 -112 -277 -52 -20 19 -25 33 -25 72 0 33 6 57
18 72 25 31 101 49 216 49 l99 1 -7 -56z"/>
<path d="M2825 7560 c-73 -15 -154 -51 -212 -94 -74 -55 -103 -87 -147 -160
-45 -74 -66 -138 -74 -224 l-7 -67 -201 4 c-168 3 -205 1 -231 -12 -17 -9 -34
-24 -37 -33 -4 -10 -13 -85 -22 -168 -82 -825 -218 -1698 -366 -2341 -150
-654 -376 -1325 -650 -1929 -97 -213 -102 -241 -57 -282 20 -18 39 -19 325
-16 264 2 304 1 304 -12 0 -8 -52 -264 -115 -568 -125 -596 -124 -589 -70
-624 19 -12 587 -14 4144 -12 l4123 3 29 33 c16 18 29 43 29 57 0 13 -39 224
-86 467 -47 244 -115 596 -150 783 -36 187 -103 538 -149 780 -46 242 -94 492
-105 555 -12 63 -57 302 -100 530 -250 1317 -387 2052 -455 2460 -45 264 -48
276 -76 302 l-29 27 -303 -6 -304 -6 -6 71 c-29 304 -304 527 -601 484 -150
-22 -286 -108 -373 -238 -42 -63 -82 -175 -83 -229 -1 -104 -34 -118 -44 -18
-31 306 -305 527 -601 485 -246 -35 -455 -267 -455 -504 0 -41 -3 -48 -20 -48
-17 0 -20 7 -20 53 0 104 -55 236 -137 327 -120 134 -301 199 -472 170 -161
-27 -316 -141 -386 -283 -34 -69 -64 -182 -65 -239 0 -17 -5 -28 -14 -28 -9 0
-15 20 -20 68 -24 245 -195 432 -439 480 -266 52 -531 -125 -602 -403 -8 -32
-15 -79 -15 -102 0 -36 -3 -43 -20 -43 -17 0 -20 7 -20 45 0 310 -311 566
-615 505z m229 -213 c111 -51 193 -163 203 -278 l6 -59 -348 0 -348 0 7 57
c28 235 269 376 480 280z m1094 -2 c71 -32 143 -103 172 -168 20 -44 41 -153
32 -162 -3 -3 -158 -5 -345 -5 l-339 0 4 58 c10 140 118 267 255 302 63 15
154 5 221 -25z m1097 1 c106 -48 190 -165 202 -280 l6 -56 -348 0 -348 0 6 59
c21 231 270 375 482 277z m1094 -1 c110 -50 186 -156 205 -287 l7 -48 -352 0
-352 0 7 57 c28 238 268 375 485 278z m1051 19 c136 -40 237 -160 255 -301 l7
-53 -352 0 -353 0 6 55 c22 215 234 360 437 299z m-4980 -581 c49 -195 240
-360 431 -371 73 -4 79 -3 103 21 18 18 26 37 26 61 0 52 -33 84 -99 96 -107
20 -191 74 -246 160 -13 19 -26 45 -30 58 l-6 22 450 0 450 0 12 -42 c52 -198
240 -364 424 -376 88 -5 117 8 135 62 9 28 8 40 -4 65 -20 38 -19 37 -105 55
-40 9 -92 27 -116 41 -54 31 -117 102 -137 155 l-16 40 449 -2 450 -3 22 -65
c48 -142 135 -243 262 -306 62 -31 89 -38 153 -42 67 -4 80 -1 103 17 31 24
41 63 27 103 -12 33 -45 52 -108 62 -115 18 -207 93 -258 209 l-12 27 454 0
454 0 12 -47 c39 -156 173 -300 328 -352 135 -46 227 -18 227 69 0 55 -33 85
-103 93 -110 13 -220 102 -262 211 l-10 26 455 0 454 0 12 -42 c30 -114 126
-245 226 -308 63 -40 161 -70 230 -70 69 0 103 29 103 88 0 59 -23 79 -109 96
-85 18 -143 49 -194 105 -31 35 -77 109 -77 126 0 3 266 5 590 5 546 0 590 -1
590 -17 0 -28 -168 -1288 -216 -1617 -144 -994 -297 -1752 -469 -2321 -57
-187 -146 -450 -156 -460 -4 -3 -6289 -12 -6289 -8 0 1 18 44 41 95 23 51 85
203 139 338 412 1025 617 1886 814 3405 34 262 66 538 66 570 0 13 22 15 159
15 l159 0 12 -47z m6125 -933 c101 -551 368 -1975 516 -2745 135 -705 338
-1757 344 -1782 4 -19 -32 0 -202 104 -377 230 -628 378 -702 413 l-73 35 3
2299 c2 1284 8 2276 12 2245 5 -30 51 -286 102 -569z m-247 -1729 l-3 -2260
-130 -84 c-201 -131 -846 -529 -850 -525 -2 1 39 174 91 383 313 1264 474
2027 634 3010 53 323 215 1453 231 1613 7 67 17 122 22 122 5 0 7 -932 5
-2259z m-928 -1898 c0 -12 -175 -713 -208 -838 -17 -60 -35 -129 -41 -152
l-12 -42 -2834 -1 c-2429 0 -2835 2 -2835 14 0 7 43 238 95 512 52 275 95 502
95 507 0 4 1292 7 2870 7 1579 0 2870 -3 2870 -7z m1096 -537 c130 -71 791
-462 812 -481 2 -1 -393 -3 -878 -4 -484 -1 -880 0 -880 2 0 2 101 66 225 143
168 104 612 385 621 393 1 1 46 -23 100 -53z"/>
<path d="M3104 6010 l-651 -5 -35 -27 c-19 -15 -43 -43 -52 -62 -9 -20 -44
-199 -77 -399 -104 -628 -191 -1026 -334 -1522 -88 -307 -218 -694 -299 -893
-75 -184 -81 -224 -40 -266 l27 -26 2151 0 c1183 0 2356 -1 2606 -3 l455 -2
45 27 c57 33 89 86 176 288 247 576 427 1234 563 2060 54 323 111 712 111 751
0 20 -10 40 -29 60 l-29 29 -1969 -2 c-1082 -2 -2261 -5 -2619 -8z m231 -227
c-4 -32 -19 -130 -33 -218 l-27 -160 -407 -2 c-225 -2 -408 1 -408 5 0 4 14
103 32 220 l32 212 409 0 409 0 -7 -57z m1055 36 c0 -17 -40 -296 -55 -384
l-5 -30 -457 -2 c-252 -1 -460 0 -463 2 -3 2 9 97 26 212 18 114 33 211 33
216 1 4 208 7 461 7 458 0 460 0 460 -21z m1060 17 c0 -2 -13 -97 -30 -211
-16 -114 -30 -209 -30 -211 0 -2 -209 -5 -465 -6 -341 -2 -465 0 -465 8 0 7
14 102 30 212 17 111 30 204 30 207 0 3 209 5 465 5 256 0 465 -2 465 -4z
m1050 -3 c0 -5 -12 -101 -27 -215 l-27 -208 -465 0 -466 0 30 215 30 215 463
0 c254 0 462 -3 462 -7z m1055 -25 c-11 -65 -55 -373 -55 -385 0 -10 -100 -13
-466 -13 l-466 0 6 28 c3 15 15 97 26 182 11 85 23 170 25 188 l6 32 465 0
465 0 -6 -32z m-81 -556 c-2 -9 -20 -105 -39 -212 -19 -107 -39 -219 -45 -247
l-12 -53 -460 0 -460 0 6 23 c3 12 21 119 41 237 20 118 38 227 41 242 l6 28
456 2 c251 2 460 2 464 0 3 -1 4 -10 2 -20z m-4224 -1 c0 -15 -62 -362 -86
-478 l-6 -33 -415 0 -415 0 4 23 c3 12 26 131 53 265 l48 242 409 0 c392 0
408 -1 408 -19z m1060 13 c0 -3 -18 -107 -41 -232 -22 -125 -43 -242 -46 -259
l-6 -33 -469 0 c-442 0 -469 1 -464 18 7 25 52 260 71 372 8 52 18 105 20 118
l5 22 465 0 c256 0 465 -3 465 -6z m1055 -16 c-2 -13 -21 -117 -40 -233 -20
-115 -39 -225 -42 -242 l-6 -33 -469 0 -470 0 6 23 c9 37 75 401 82 457 l7 50
468 0 469 0 -5 -22z m1059 5 c-2 -10 -20 -115 -40 -233 -19 -118 -38 -230 -41
-247 l-6 -33 -469 0 c-442 0 -469 1 -464 18 6 19 86 486 86 502 0 7 162 10
469 10 442 0 469 -1 465 -17z m-3299 -665 c-19 -90 -117 -477 -134 -535 l-22
-73 -420 0 c-231 0 -418 4 -415 8 4 7 108 386 151 555 l18 67 414 0 413 0 -5
-22z m1048 -45 c-21 -93 -107 -435 -128 -505 l-16 -58 -465 0 c-376 0 -465 2
-462 13 2 7 37 149 78 315 l75 302 467 0 466 0 -15 -67z m1077 62 c0 -24 -119
-522 -141 -592 l-11 -33 -473 0 -473 0 14 48 c22 73 111 418 129 505 l17 77
469 0 c258 0 469 -2 469 -5z m1060 0 c0 -25 -119 -518 -146 -607 -5 -17 -36
-18 -470 -18 -255 0 -464 3 -464 6 0 3 24 103 54 222 29 119 62 259 72 310
l18 92 468 0 c257 0 468 -2 468 -5z m1045 -7 c-2 -7 -25 -98 -50 -203 -25
-104 -60 -241 -77 -302 l-30 -113 -458 0 -457 0 34 123 c18 67 53 209 76 314
l42 193 462 0 c366 0 461 -3 458 -12z m-4425 -752 c0 -32 -194 -581 -270 -765
l-42 -101 -415 0 c-328 0 -414 3 -410 13 52 118 126 320 204 559 l98 298 418
0 c229 0 417 -2 417 -4z m1060 -1 c0 -21 -184 -554 -238 -690 l-68 -170 -468
-3 c-373 -2 -467 0 -463 10 90 219 224 595 302 846 4 9 106 12 470 12 256 0
465 -2 465 -5z m1064 -22 c-17 -72 -178 -545 -233 -685 l-62 -158 -474 0 -474
0 31 73 c61 142 126 326 198 552 40 127 75 233 77 238 2 4 216 7 474 7 l469 0
-6 -27z m1066 21 c0 -17 -177 -534 -235 -686 l-68 -178 -463 0 c-255 0 -464 2
-464 4 0 3 25 67 55 143 30 76 98 270 151 431 l96 292 464 0 c255 0 464 -3
464 -6z m1040 3 c0 -1 -24 -75 -54 -162 -85 -253 -189 -520 -261 -667 l-19
-38 -443 0 -444 0 15 28 c32 62 213 577 291 830 4 9 104 12 460 12 250 0 455
-1 455 -3z"/>
<path d="M4326 3719 c-14 -11 -26 -29 -26 -40 0 -11 23 -68 50 -127 l51 -106
-121 -121 c-132 -132 -143 -155 -94 -194 15 -12 34 -21 42 -21 8 0 63 48 123
106 l108 106 50 -100 c41 -81 55 -101 77 -106 39 -10 79 22 78 60 0 16 -23 78
-49 137 l-49 108 101 102 c55 56 106 112 112 124 21 41 -19 93 -71 93 -6 0
-55 -43 -109 -96 l-98 -97 -39 86 c-50 108 -82 128 -136 86z"/>
<path d="M8339 1713 c-1 -5 -1 -11 0 -15 0 -4 -5 -5 -12 -3 -6 3 -23 -4 -37
-15 -19 -15 -21 -20 -8 -20 9 0 19 6 21 13 3 7 6 5 6 -5 1 -12 -6 -18 -21 -18
-16 0 -19 -3 -11 -11 6 -6 9 -18 6 -25 -3 -8 0 -14 7 -14 6 0 9 4 6 8 -2 4 -1
14 4 22 5 8 8 -7 7 -38 -2 -52 -17 -75 -17 -26 0 16 -4 23 -11 18 -8 -5 -10 1
-7 20 3 14 1 26 -3 26 -5 0 -9 7 -9 16 0 8 -4 13 -9 10 -5 -4 -8 -17 -6 -31 1
-14 -2 -25 -6 -25 -5 0 -9 -5 -9 -11 0 -5 5 -7 12 -3 7 4 8 3 4 -4 -16 -25
-27 -11 -20 25 l7 37 -29 -19 c-87 -56 -104 -68 -104 -75 0 -4 -6 -7 -13 -7
-17 0 -68 -34 -63 -42 3 -4 -3 -7 -12 -7 -15 0 -88 -44 -389 -232 -40 -25 -73
-47 -73 -49 0 -2 5 -1 12 3 6 4 39 6 73 5 68 -2 88 10 88 55 0 15 3 21 7 14 5
-8 9 -7 13 5 5 10 3 14 -4 9 -7 -4 -10 -2 -8 5 3 7 8 12 13 11 5 -1 13 4 18
12 7 9 8 7 5 -9 -5 -25 18 -40 27 -17 3 8 1 14 -4 14 -6 0 -10 7 -10 16 0 8 4
13 9 10 5 -3 11 1 15 9 3 8 10 15 16 15 6 0 18 7 27 15 8 8 19 12 25 9 7 -4 8
-2 4 4 -5 8 2 12 18 12 14 0 26 -5 26 -12 0 -6 3 -8 7 -4 5 4 -1 14 -12 23
-19 14 -18 14 16 10 20 -2 45 -10 55 -16 16 -10 14 -11 -13 -6 -26 5 -33 3
-33 -9 0 -10 -9 -16 -22 -17 -22 -1 -22 -1 2 -9 21 -7 22 -8 5 -9 -13 -1 -16
-4 -8 -9 7 -4 11 -21 9 -37 -4 -36 3 -52 15 -34 6 9 8 2 8 -21 0 -19 -3 -29
-6 -22 -2 6 -11 12 -19 12 -8 0 -14 4 -14 8 0 4 -12 8 -27 9 -16 0 -20 -1 -10
-4 9 -2 17 -10 17 -18 0 -10 -5 -11 -25 -2 -18 9 -23 17 -19 32 l6 20 -17 -20
c-9 -11 -14 -14 -10 -7 3 6 3 12 -2 13 -4 0 -23 2 -40 3 -18 2 -33 -1 -33 -6
0 -12 62 -38 74 -31 5 4 6 1 2 -5 -7 -12 -40 -11 -52 1 -11 10 -26 8 -19 -2 3
-6 -3 -8 -15 -6 -11 2 -22 -1 -26 -6 -3 -6 64 -9 181 -8 l187 1 -5 24 c-3 19
-1 22 12 15 18 -10 41 -4 41 10 0 6 -4 7 -10 4 -5 -3 -10 -2 -10 3 0 5 -10 8
-22 7 -16 -1 -23 -8 -22 -23 0 -12 -4 -18 -9 -15 -5 3 -7 14 -4 24 3 10 0 22
-6 26 -7 3 -9 3 -5 -1 4 -5 3 -19 -2 -32 -7 -17 -6 -24 2 -24 6 0 9 -3 5 -6
-3 -3 -13 -2 -23 4 -11 6 -13 11 -5 16 6 4 11 12 11 19 0 8 -3 8 -12 -1 -7 -7
-19 -12 -27 -12 -12 0 -12 3 1 18 9 9 13 22 11 29 -3 8 3 11 17 8 11 -2 18 0
16 4 -3 4 1 8 9 8 8 0 12 -4 9 -9 -10 -16 7 -28 25 -18 12 6 22 5 30 -3 10 -9
12 -5 8 20 -6 40 -14 53 -33 53 -16 0 -19 -16 -4 -25 6 -3 10 0 10 7 0 9 3 9
10 -2 6 -9 5 -18 -1 -25 -7 -7 -13 -5 -19 6 -10 17 -60 15 -60 -3 0 -5 -4 -6
-10 -3 -17 10 -32 -5 -20 -20 8 -10 8 -15 0 -20 -6 -4 -15 -17 -19 -28 -7 -19
-9 -18 -13 11 -4 27 -2 32 11 27 13 -5 14 -4 4 6 -7 7 -13 21 -13 32 0 12 -4
16 -12 11 -10 -5 -10 -4 -1 6 6 7 9 19 6 26 -7 20 11 17 31 -5 16 -17 16 -19
0 -25 -9 -4 -15 -9 -12 -11 9 -10 38 7 38 21 0 17 5 17 32 3 18 -10 20 -9 14
7 -4 10 -4 16 -1 12 3 -3 22 -2 42 2 24 6 32 5 25 -2 -7 -7 -6 -20 4 -43 7
-18 10 -35 7 -39 -9 -8 26 -44 40 -42 19 3 37 16 37 28 0 5 -6 8 -14 5 -12 -5
-12 0 -5 26 14 50 12 55 -26 52 -27 -1 -32 1 -25 10 8 9 6 15 -6 19 -16 6 -15
8 2 21 18 13 18 14 -6 10 -14 -3 -30 -10 -35 -17 -14 -19 -32 -20 -39 -3 -3 9
3 19 14 25 14 8 20 8 20 0 0 -8 6 -8 20 0 24 13 27 35 4 26 -14 -5 -15 -4 -4
9 11 14 7 19 -12 16 -14 -2 -47 32 -41 42 3 5 9 3 14 -4 7 -11 9 -10 9 4 0 10
4 16 8 13 4 -2 14 -1 22 4 9 5 19 5 27 -2 19 -15 16 -25 -9 -31 -18 -5 -19 -8
-9 -21 8 -9 18 -13 23 -10 6 4 5 10 -3 15 -11 7 -11 9 -1 9 7 0 15 -7 18 -15
4 -8 11 -12 17 -8 6 3 7 1 3 -6 -4 -6 -12 -9 -17 -6 -5 4 -9 1 -9 -4 0 -6 5
-11 11 -11 6 0 8 -12 6 -29 -3 -19 0 -31 8 -35 9 -3 12 0 8 10 -3 9 2 14 17
14 11 0 18 4 15 10 -3 5 -1 18 4 27 6 10 11 13 11 6 0 -7 7 -10 16 -6 11 4 22
-1 30 -12 8 -10 14 -13 14 -7 0 10 5 10 20 2 11 -6 20 -8 20 -4 0 3 7 1 15 -6
17 -14 20 -40 5 -40 -5 0 -7 7 -4 15 8 20 -6 19 -35 -4 -24 -19 -51 -18 -51 1
0 5 5 6 12 2 7 -4 8 -3 4 4 -10 17 -26 15 -26 -3 0 -8 -5 -15 -11 -15 -8 0 -7
-6 2 -17 12 -15 12 -16 -3 -10 -12 4 -15 2 -11 -9 3 -8 -1 -14 -11 -14 -9 0
-16 -5 -16 -11 0 -6 9 -9 19 -6 13 3 21 -2 25 -15 3 -14 10 -19 20 -15 8 3 18
2 21 -3 4 -6 12 -10 18 -9 9 0 8 2 -1 6 -6 2 -9 10 -6 15 5 7 2 8 -5 4 -8 -5
-11 -3 -9 5 1 8 -2 15 -7 16 -6 1 -9 -6 -7 -15 2 -14 1 -15 -7 -2 -7 10 -6 19
5 31 12 14 13 18 2 22 -7 2 -10 8 -6 12 4 4 14 2 22 -4 11 -10 16 -9 23 4 7
13 15 14 35 6 14 -5 29 -7 32 -4 3 4 6 1 6 -5 0 -20 -21 -24 -40 -7 -10 9 -20
13 -23 8 -6 -10 19 -34 27 -26 3 4 6 2 6 -3 0 -5 -9 -15 -20 -22 -12 -7 -19
-21 -17 -35 1 -15 -3 -21 -13 -18 -8 2 -22 4 -30 5 -9 1 -22 6 -29 11 -9 5
-18 2 -27 -9 -7 -10 -18 -18 -26 -20 -7 -1 -19 -6 -27 -10 -9 -6 -12 -5 -7 2
12 20 -10 21 -40 1 l-29 -19 165 1 c109 0 170 5 179 12 11 9 13 9 8 0 -5 -9 7
-12 43 -11 47 0 50 2 44 20 -5 17 -3 20 11 14 16 -6 16 -4 4 11 -12 16 -12 16
8 0 19 -17 22 -17 30 -2 6 11 15 13 29 8 25 -11 28 -43 3 -43 -10 0 -19 5 -19
11 0 8 -4 8 -15 -1 -8 -6 -19 -9 -25 -5 -5 3 -10 2 -10 -4 0 -6 38 -10 98 -9
53 0 89 3 80 5 -19 5 -23 15 -11 26 3 4 12 2 19 -3 8 -8 16 -7 26 3 17 17 38
11 37 -11 0 -11 -2 -12 -6 -4 -2 6 -9 12 -14 12 -6 0 -7 -4 -4 -10 3 -6 -1 -7
-9 -4 -9 3 -16 1 -16 -5 0 -7 26 -11 73 -11 62 1 70 2 55 14 -19 14 -26 62 -8
51 6 -4 8 -11 4 -16 -3 -6 4 -20 16 -31 18 -17 24 -18 31 -7 4 8 14 14 20 14
7 0 13 6 15 13 1 7 0 8 -2 3 -3 -6 -12 -7 -20 -4 -11 4 -12 8 -4 13 10 6 17
27 19 58 1 6 6 12 11 12 7 0 7 -7 2 -17 -10 -21 -10 -33 1 -50 10 -17 -3 -45
-19 -39 -8 3 -14 1 -14 -4 0 -6 12 -10 26 -10 17 0 23 4 18 13 -6 9 -4 9 8 -1
11 -9 49 -12 127 -11 l111 1 -35 24 c-21 14 -42 21 -52 17 -10 -4 -14 -2 -9 5
3 6 2 13 -3 16 -5 3 -12 -4 -15 -17 l-6 -22 -20 24 c-11 13 -20 18 -20 13 0
-6 -9 -10 -21 -9 -19 1 -19 2 -3 14 19 14 21 13 -38 17 -9 1 -20 4 -24 9 -4 4
11 5 34 2 71 -9 53 10 -93 96 -27 15 -36 18 -27 7 11 -14 10 -16 -8 -11 -13 3
-19 11 -16 19 3 8 -4 19 -16 25 -16 9 -24 8 -36 -5 -14 -14 -14 -18 8 -41 20
-21 21 -27 10 -38 -10 -10 -12 -9 -7 6 4 9 2 17 -3 17 -6 0 -10 -4 -10 -10 0
-5 -7 -10 -15 -10 -15 0 -38 -33 -30 -44 3 -3 2 -3 -2 0 -11 8 -10 28 2 36 6
5 3 8 -7 8 -9 0 -18 -4 -20 -10 -2 -5 -9 -6 -17 -1 -10 7 -5 11 18 16 26 6 30
10 27 31 -3 13 -1 22 4 19 5 -3 11 4 15 15 4 11 10 18 15 15 5 -3 11 -1 14 4
6 9 -110 84 -131 84 -7 0 -13 4 -13 8 0 10 -286 169 -304 169 -9 0 -17 -3 -17
-7z m16 -43 c-5 8 -3 11 4 9 7 -3 12 -8 11 -13 -1 -5 4 -13 12 -17 11 -7 11
-9 0 -9 -9 0 -11 -7 -7 -20 4 -11 2 -20 -4 -20 -6 0 -11 -7 -11 -16 0 -8 -5
-12 -10 -9 -7 4 -7 13 0 26 6 10 7 19 3 18 -21 -4 -31 3 -28 19 1 9 -2 26 -8
37 -10 19 -9 19 18 1 15 -10 24 -13 20 -6z m78 -8 c-3 -12 9 -16 36 -12 8 1
20 -5 25 -13 6 -8 16 -15 21 -17 28 -8 36 -14 31 -26 -3 -7 -1 -16 4 -19 9 -5
8 -15 -4 -55 -11 -37 -28 -70 -37 -70 -10 0 -5 30 8 38 12 9 25 54 12 46 -5
-3 -9 2 -9 11 0 9 4 14 9 10 5 -3 12 -1 16 5 3 5 -1 10 -9 10 -10 0 -16 9 -16
23 0 14 -6 24 -15 24 -18 0 -19 -10 -4 -40 8 -19 8 -20 -3 -7 -12 14 -24 17
-51 12 -4 -1 -3 -11 4 -23 8 -15 18 -20 35 -16 19 3 22 1 13 -9 -7 -8 -18 -10
-32 -5 -12 5 -31 5 -42 0 -11 -4 -16 -8 -11 -8 5 -1 3 -7 -3 -15 -9 -11 -9
-15 1 -20 7 -3 4 -4 -7 -3 -13 1 -19 -3 -16 -13 2 -8 4 -21 4 -27 0 -7 11 -13
25 -13 l24 0 -23 20 c-13 10 -20 19 -16 20 5 0 15 -7 23 -15 9 -8 20 -15 25
-15 5 0 9 7 9 15 0 8 5 15 11 15 5 0 7 -4 4 -10 -3 -5 -1 -10 4 -10 6 0 11 -7
11 -16 0 -14 2 -15 17 -3 9 8 14 9 10 3 -4 -7 5 -9 25 -6 21 3 26 7 17 13 -10
6 -10 9 -2 9 6 0 15 -5 18 -10 4 -6 11 -8 16 -4 6 3 17 -2 24 -12 8 -11 15
-17 15 -14 7 30 7 39 1 35 -4 -2 -25 1 -45 7 -31 10 -39 9 -47 -3 -7 -12 -9
-12 -9 1 1 8 12 23 25 33 20 14 24 15 19 2 -3 -8 -2 -15 4 -15 16 0 34 28 26
41 -5 8 -3 9 6 4 9 -5 11 -4 6 3 -4 7 -2 12 3 12 13 0 10 22 -4 32 -15 12 7
10 25 -2 11 -7 11 -10 2 -10 -10 0 -10 -5 -2 -21 6 -11 9 -25 6 -32 -2 -7 -5
-3 -5 8 -1 16 -3 17 -10 5 -6 -8 -7 -18 -5 -22 3 -4 -2 -8 -10 -8 -8 0 -17 -4
-20 -8 -6 -10 24 -9 40 0 5 4 11 -2 11 -13 3 -31 24 -53 34 -37 5 7 9 8 9 2 0
-18 -12 -24 -31 -14 -22 12 -39 -8 -18 -21 12 -7 12 -9 0 -9 -11 0 -11 -3 0
-17 12 -15 12 -16 -1 -8 -8 5 -19 10 -25 11 -5 0 -16 2 -22 2 -7 1 -13 7 -13
12 0 5 5 9 11 7 14 -3 21 31 8 39 -5 3 -9 -2 -9 -10 0 -10 -8 -16 -22 -15 -22
0 -22 1 -3 9 19 8 19 9 -2 9 -30 1 -38 -16 -13 -29 11 -6 18 -15 15 -20 -4 -6
-17 -3 -30 6 -14 9 -22 20 -19 25 3 5 0 9 -6 9 -7 0 -9 -8 -5 -21 5 -15 3 -20
-6 -17 -8 3 -17 20 -20 39 -4 19 -7 28 -8 20 0 -7 -7 -11 -15 -8 -16 7 -40
-16 -29 -27 4 -4 8 -14 8 -22 0 -17 20 -14 20 3 0 6 4 15 8 20 5 4 7 3 5 -4
-1 -6 6 -19 17 -28 16 -13 17 -16 3 -11 -10 3 -20 0 -24 -6 -4 -6 -3 -8 3 -5
6 4 10 -3 9 -15 -1 -23 -40 -36 -52 -16 -5 7 1 9 20 6 30 -6 35 7 7 22 -37 19
-77 9 -53 -14 4 -4 7 -13 7 -19 1 -7 7 -11 14 -9 7 1 10 -2 6 -8 -4 -6 -13 -9
-20 -8 -8 2 -13 -1 -12 -7 1 -5 12 -10 24 -9 12 1 20 -3 17 -8 -3 -4 -10 -5
-16 -2 -7 5 -9 2 -6 -7 4 -10 -4 -14 -28 -16 -34 -2 -44 9 -22 23 7 4 8 3 4
-4 -4 -7 -3 -12 2 -12 6 0 9 21 8 48 -1 26 4 57 12 69 8 13 12 30 8 38 -3 8 0
15 7 15 7 0 4 5 -6 11 -9 6 -15 14 -12 19 3 5 1 12 -5 15 -6 4 -10 3 -9 -2 6
-32 -3 -35 -25 -8 -13 17 -29 31 -35 31 -6 1 -15 2 -21 3 -5 0 -10 6 -10 12 0
6 7 9 15 6 8 -4 17 -1 21 5 4 6 3 8 -3 5 -6 -4 -16 0 -23 8 -9 10 -9 15 -1 15
6 0 11 -4 11 -8 0 -4 9 -8 20 -9 11 -1 20 2 20 8 0 5 -4 9 -8 9 -4 0 -8 9 -9
21 -2 17 1 18 13 8 20 -16 15 -69 -6 -61 -13 5 -13 4 0 -17 8 -12 20 -22 25
-22 14 0 24 44 12 59 -7 8 -5 12 7 12 9 0 15 -3 15 -7 -3 -17 2 -24 12 -18 7
5 4 13 -7 26 -9 10 -21 16 -27 12 -6 -3 -7 -1 -3 6 4 6 12 9 17 6 5 -4 9 -2 9
4 0 5 8 8 18 6 9 -1 16 -8 14 -15 -1 -6 2 -9 8 -5 7 4 7 12 0 26 -10 17 -7 23
11 21 14 -2 16 37 3 42 -8 3 -13 1 -11 -5 1 -6 -8 -15 -20 -20 -18 -6 -23 -5
-23 6 0 8 8 15 18 15 14 0 15 2 2 10 -8 5 -11 10 -6 10 5 0 3 6 -3 14 -9 11
-7 13 11 12 13 -1 22 -7 21 -14z m-249 -74 c-5 -7 -2 -9 9 -5 11 4 14 2 10 -9
-3 -8 1 -14 11 -14 9 0 16 -8 16 -20 0 -11 9 -24 19 -28 15 -6 16 -9 6 -19
-10 -10 -16 -9 -25 2 -13 16 -34 10 -24 -6 3 -5 10 -7 15 -4 5 4 9 2 9 -3 0
-6 -7 -13 -16 -16 -8 -3 -13 -2 -10 3 3 5 -1 14 -9 21 -20 16 -19 32 1 28 10
-2 18 5 20 15 2 15 0 16 -14 5 -13 -11 -15 -11 -9 4 3 10 2 20 -3 23 -6 4 -11
1 -11 -4 -1 -6 -2 -15 -3 -21 0 -5 -5 -10 -11 -9 -5 1 -9 5 -7 10 1 5 -2 9 -8
9 -5 0 -7 6 -4 14 3 8 12 12 20 9 8 -3 14 -2 13 3 -2 14 0 24 7 24 3 0 2 -5
-2 -12z m226 -8 c0 -5 -7 -7 -15 -4 -8 4 -15 8 -15 10 0 2 7 4 15 4 8 0 15 -4
15 -10z m179 -26 c-10 -12 -9 -13 5 -8 19 7 22 -9 4 -23 -23 -18 -50 -24 -45
-11 2 7 10 12 16 10 7 -1 11 3 10 10 -3 29 2 49 11 43 8 -5 7 -11 -1 -21z
m-326 -26 c-8 -14 -19 -8 -20 12 -1 16 1 17 12 7 7 -6 11 -15 8 -19z m204 -27
c-1 -16 -5 -18 -20 -9 -16 8 -17 12 -6 19 21 13 28 11 26 -10z m48 0 c-8 -14
-25 -14 -25 0 0 5 5 7 10 4 6 -3 10 -1 10 6 0 7 3 10 6 6 3 -3 3 -10 -1 -16z
m-462 -19 c-11 -3 -11 -7 -2 -18 6 -7 16 -11 22 -7 6 3 7 1 3 -5 -7 -12 -36
-5 -36 9 0 6 -10 4 -22 -3 -13 -7 -27 -11 -32 -10 -5 2 -4 -4 3 -12 10 -12 9
-14 -8 -9 -11 3 -22 11 -25 19 -4 10 3 14 27 15 25 0 28 2 13 8 -18 7 -18 8
-3 14 9 3 17 2 17 -3 0 -18 22 -10 27 9 4 16 8 17 18 8 11 -10 10 -13 -2 -15z
m633 20 c15 -10 25 -42 14 -42 -6 0 -10 5 -10 11 0 7 -8 18 -17 25 -19 14 -6
19 13 6z m-406 -32 c0 -5 -4 -10 -10 -10 -5 0 -10 5 -10 10 0 6 5 10 10 10 6
0 10 -4 10 -10z m400 0 c0 -5 -4 -10 -10 -10 -5 0 -10 5 -10 10 0 6 5 10 10
10 6 0 10 -4 10 -10z m-355 -17 c3 -10 -1 -13 -12 -11 -9 2 -18 8 -20 14 -5
16 25 13 32 -3z m445 7 c0 -5 -4 -10 -9 -10 -6 0 -13 5 -16 10 -3 6 1 10 9 10
9 0 16 -4 16 -10z m-36 -21 c-3 -5 -10 -7 -15 -3 -5 3 -7 10 -3 15 3 5 10 7
15 3 5 -3 7 -10 3 -15z m-537 -11 c-3 -8 -6 -5 -6 6 -1 11 2 17 5 13 3 -3 4
-12 1 -19z m-157 -9 c0 -6 -4 -7 -10 -4 -13 8 -13 -1 1 -26 9 -18 8 -19 -8
-11 -10 5 -24 7 -32 4 -7 -2 -4 5 8 17 11 11 21 26 21 32 0 5 5 7 10 4 6 -3
10 -11 10 -16z m692 -21 c-9 -9 -15 -9 -24 1 -11 10 -10 11 5 6 10 -5 17 -2
17 6 0 7 3 9 7 6 4 -4 1 -13 -5 -19z m-45 -24 c3 -8 0 -21 -6 -27 -9 -9 -11
-8 -5 7 5 12 4 17 -3 13 -5 -3 -10 0 -10 8 0 20 16 19 24 -1z m268 -3 c3 -5 2
-12 -3 -15 -5 -3 -9 1 -9 9 0 17 3 19 12 6z m-415 -27 c0 -9 5 -12 12 -8 8 5
9 2 5 -9 -3 -9 -2 -19 3 -22 6 -4 10 -1 10 6 0 7 2 10 5 7 8 -8 -6 -38 -17
-38 -5 0 -6 5 -3 10 4 6 -3 8 -17 6 -13 -3 -27 -5 -31 -5 -5 -1 -5 -5 -2 -11
3 -5 2 -10 -4 -10 -5 0 -13 5 -16 10 -3 6 -2 10 4 10 5 0 7 12 5 27 -5 26 -4
26 14 10 27 -25 37 -21 19 7 -9 13 -13 26 -10 30 9 9 23 -3 23 -20z m355 4 c5
4 5 1 1 -5 -4 -7 -2 -22 4 -33 9 -17 8 -20 -9 -20 -23 0 -36 16 -22 25 7 4 7
15 1 33 -9 24 -8 25 3 10 8 -10 18 -14 22 -10z m-728 -34 c-1 -19 -6 -34 -12
-34 -14 0 -14 42 0 52 6 4 2 8 -8 8 -10 0 -16 4 -12 10 12 20 33 -2 32 -36z
m686 21 c-7 -21 -12 -19 -10 4 0 11 5 18 9 15 4 -3 5 -11 1 -19z m-232 6 c-7
-5 -17 -15 -22 -22 -7 -11 -9 -9 -9 6 0 14 7 21 22 22 16 2 19 0 9 -6z m-191
-5 c0 -11 -19 -15 -25 -6 -3 5 1 10 9 10 9 0 16 -2 16 -4z m292 -18 c-7 -7
-12 -8 -12 -2 0 14 12 26 19 19 2 -3 -1 -11 -7 -17z m208 12 c0 -5 -5 -10 -11
-10 -5 0 -7 5 -4 10 3 6 8 10 11 10 2 0 4 -4 4 -10z m-980 -15 c0 -8 -4 -15
-10 -15 -5 0 -7 7 -4 15 4 8 8 15 10 15 2 0 4 -7 4 -15z m687 -2 c0 -7 -5 -13
-11 -13 -6 0 -3 -5 7 -11 9 -5 17 -14 17 -19 0 -6 -9 -2 -20 7 -23 20 -27 50
-7 50 8 0 14 -6 14 -14z m178 7 c-3 -5 -12 -10 -18 -10 -7 0 -6 4 3 10 19 12
23 12 15 0z m-1105 -30 c-6 -12 -16 -17 -26 -13 -12 4 -11 8 8 18 13 7 24 13
26 14 1 1 -2 -8 -8 -19z m641 -4 c5 3 9 0 9 -5 0 -6 -7 -11 -15 -11 -8 0 -15
8 -14 18 0 10 3 12 6 4 2 -6 9 -10 14 -6z m114 4 c3 -5 -1 -10 -10 -10 -9 0
-13 5 -10 10 3 6 8 10 10 10 2 0 7 -4 10 -10z m365 -10 c8 -16 8 -20 -2 -18
-7 2 -12 -4 -10 -12 3 -13 1 -13 -10 -1 -10 11 -10 14 0 18 21 8 13 21 -10 16
-19 -4 -20 -3 -8 6 21 15 28 14 40 -9z m-96 -8 c6 -10 -30 -9 -40 1 -4 4 2 7
14 7 11 0 23 -4 26 -8z m-1080 -18 c3 -8 2 -12 -4 -9 -6 3 -10 10 -10 16 0 14
7 11 14 -7z m821 -4 c0 -7 -6 -14 -13 -16 -7 -1 -8 0 -2 3 7 3 7 10 -2 21 -11
13 -11 14 2 10 8 -2 15 -11 15 -18z m425 10 c0 -5 -4 -10 -10 -10 -5 0 -10 5
-10 10 0 6 5 10 10 10 6 0 10 -4 10 -10z m-622 -12 c-5 -14 -48 -20 -48 -7 0
7 19 14 43 18 5 0 7 -5 5 -11z m229 -3 c0 -8 -4 -15 -9 -15 -4 0 -8 7 -8 15 0
8 4 15 8 15 5 0 9 -7 9 -15z m183 5 c0 -5 -4 -10 -10 -10 -5 0 -10 5 -10 10 0
6 5 10 10 10 6 0 10 -4 10 -10z m-760 -16 c0 -2 -7 -4 -15 -4 -8 0 -15 4 -15
10 0 5 7 7 15 4 8 -4 15 -8 15 -10z m410 0 c0 -2 -11 -4 -25 -4 -14 0 -25 4
-25 9 0 4 11 6 25 3 14 -2 25 -6 25 -8z m315 6 c3 -5 1 -10 -4 -10 -6 0 -11 5
-11 10 0 6 2 10 4 10 3 0 8 -4 11 -10z m500 0 c-3 -5 -13 -10 -21 -10 -8 0
-14 5 -14 10 0 6 9 10 21 10 11 0 17 -4 14 -10z m-48 -6 c-3 -3 -12 -4 -19 -1
-8 3 -5 6 6 6 11 1 17 -2 13 -5z"/>
<path d="M8340 1639 c0 -5 5 -7 10 -4 6 3 10 8 10 11 0 2 -4 4 -10 4 -5 0 -10
-5 -10 -11z"/>
<path d="M8467 1620 c-3 -11 0 -23 6 -27 7 -3 9 -3 5 2 -4 4 -3 14 3 21 6 7 6
15 1 18 -6 3 -12 -3 -15 -14z"/>
<path d="M8095 1516 c-11 -8 -14 -15 -8 -19 6 -4 16 0 23 8 17 21 8 28 -15 11z"/>
<path d="M8223 1420 c1 -11 5 -20 9 -20 11 0 10 28 -1 35 -6 3 -9 -4 -8 -15z"/>
<path d="M8295 1410 c-3 -5 1 -10 9 -10 9 0 16 5 16 10 0 6 -4 10 -9 10 -6 0
-13 -4 -16 -10z"/>
<path d="M8780 1410 c0 -6 -5 -8 -12 -4 -7 4 -8 3 -4 -4 9 -14 36 -16 36 -3 0
6 -4 13 -10 16 -5 3 -10 1 -10 -5z"/>
<path d="M8200 1391 c0 -5 5 -13 10 -16 6 -3 10 -2 10 4 0 5 -4 13 -10 16 -5
3 -10 2 -10 -4z"/>
<path d="M7811 1345 c0 -11 4 -29 8 -39 6 -15 9 -16 13 -5 2 8 -1 25 -9 39
-11 22 -13 22 -12 5z"/>
<path d="M7830 1350 c0 -5 9 -10 21 -10 11 0 17 -5 14 -10 -3 -6 0 -13 9 -16
9 -3 12 -12 8 -22 -5 -15 -4 -15 11 -3 14 11 16 42 3 58 -7 8 -66 11 -66 3z
m60 -20 c0 -5 -5 -10 -11 -10 -5 0 -7 5 -4 10 3 6 8 10 11 10 2 0 4 -4 4 -10z"/>
<path d="M8292 1341 c-10 -6 -10 -10 3 -21 13 -11 15 -9 15 9 0 24 0 24 -18
12z"/>
<path d="M9050 1310 c0 -5 7 -10 16 -10 8 0 13 -4 9 -9 -3 -5 -1 -12 4 -15 5
-4 8 1 7 10 -3 19 -36 41 -36 24z"/>
<path d="M7737 1263 c-4 -3 -7 -11 -7 -17 0 -6 5 -5 12 2 6 6 9 14 7 17 -3 3
-9 2 -12 -2z"/>
</g>
</svg>
